<?xml version="1.0" encoding="utf-8"?>
<!-- Generator: Adobe Illustrator 23.0.1, SVG Export Plug-In . SVG Version: 6.00 Build 0)  -->
<svg version="1.1" id="Camada_1" xmlns="http://www.w3.org/2000/svg" xmlns:xlink="http://www.w3.org/1999/xlink" x="0px" y="0px"
	 viewBox="0 0 5669.29 8503.94" style="enable-background:new 0 0 5669.29 8503.94;" xml:space="preserve">
<style type="text/css">
	.st0{fill:#1BD9B7;}
</style>
<g>
	<polygon class="st0" points="4980.49,6628.99 4636.01,6628.99 4636.01,2937.22 2979.89,1315.46 1044.08,1315.46 1044.08,970.97 
		3120.47,970.97 4980.49,2792.41 	"/>
</g>
<g>
	<path class="st0" d="M4808.25,7710c-312.19,0-566.17-253.98-566.17-566.17c0-312.19,253.99-566.17,566.17-566.17
		c312.19,0,566.17,253.98,566.17,566.17C5374.42,7456.02,5120.44,7710,4808.25,7710z M4808.25,6922.15
		c-122.23,0-221.69,99.45-221.69,221.69c0,122.23,99.46,221.68,221.69,221.68s221.69-99.45,221.69-221.68
		C5029.94,7021.6,4930.48,6922.15,4808.25,6922.15z"/>
</g>
<g>
	<path class="st0" d="M771.75,1709.38c-312.19,0-566.15-253.98-566.15-566.16s253.97-566.16,566.15-566.16
		s566.17,253.98,566.17,566.16S1083.94,1709.38,771.75,1709.38z M771.75,921.53c-122.23,0-221.67,99.45-221.67,221.68
		s99.44,221.68,221.67,221.68s221.69-99.45,221.69-221.68S893.98,921.53,771.75,921.53z"/>
</g>
</svg>
