<?xml version="1.0" encoding="utf-8"?>
<!-- Generator: Adobe Illustrator 23.0.1, SVG Export Plug-In . SVG Version: 6.00 Build 0)  -->
<svg version="1.1" id="Camada_1" xmlns="http://www.w3.org/2000/svg" xmlns:xlink="http://www.w3.org/1999/xlink" x="0px" y="0px"
	 viewBox="0 0 2834.65 8503.94" style="enable-background:new 0 0 2834.65 8503.94;" xml:space="preserve">
<style type="text/css">
	.st0{fill:#1BD9B7;}
</style>
<g>
	<path class="st0" d="M514.5,7789.4c-213.92,0-387.96-174.04-387.96-387.97s174.04-387.97,387.96-387.97
		c213.93,0,387.97,174.04,387.97,387.97S728.42,7789.4,514.5,7789.4z M514.5,7180.78c-121.67,0-220.65,98.99-220.65,220.66
		s98.98,220.66,220.65,220.66s220.66-98.99,220.66-220.66S636.17,7180.78,514.5,7180.78z"/>
</g>
<g>
	<path class="st0" d="M2301.58,1160.89c-213.92,0-387.96-174.04-387.96-387.96s174.04-387.96,387.96-387.96
		c213.93,0,387.97,174.04,387.97,387.96S2515.51,1160.89,2301.58,1160.89z M2301.58,552.27c-121.67,0-220.65,98.99-220.65,220.66
		s98.98,220.66,220.65,220.66s220.66-98.99,220.66-220.66S2423.26,552.27,2301.58,552.27z"/>
</g>
<g>
	<polygon class="st0" points="598.15,7178.04 430.84,7178.04 430.84,4349.19 1264.89,3481.34 1264.89,1778.47 2123.43,919.93 
		2241.74,1038.23 1432.19,1847.77 1432.19,3548.7 598.15,4416.56 	"/>
</g>
</svg>
