<?xml version="1.0" encoding="utf-8"?>
<!-- Generator: Adobe Illustrator 23.0.1, SVG Export Plug-In . SVG Version: 6.00 Build 0)  -->
<svg version="1.1" id="Camada_1" xmlns="http://www.w3.org/2000/svg" xmlns:xlink="http://www.w3.org/1999/xlink" x="0px" y="0px"
	 viewBox="0 0 8503.94 8503.94" style="enable-background:new 0 0 8503.94 8503.94;" xml:space="preserve">
<style type="text/css">
	.st0{fill:#1BD9B7;}
</style>
<g>
	<polygon class="st0" points="5468.17,6850.49 2866.51,6850.49 2866.51,6071.63 5146.84,6071.63 6731.44,4495.62 5035.92,2845.97 
		5579.08,2287.73 7842.01,4489.52 	"/>
</g>
<g>
	<path class="st0" d="M2123.71,7746.95c-705.84,0-1280.05-576.85-1280.05-1285.89s574.21-1285.89,1280.05-1285.89
		s1280.09,576.85,1280.09,1285.89S2829.55,7746.95,2123.71,7746.95z M2123.71,5954.03c-276.37,0-501.19,227.45-501.19,507.03
		c0,279.58,224.82,507.03,501.19,507.03s501.24-227.45,501.24-507.03C2624.95,6181.49,2400.08,5954.03,2123.71,5954.03z"/>
</g>
<g>
	<path class="st0" d="M4758.93,3328.76c-705.84,0-1280.09-576.85-1280.09-1285.89S4053.09,756.99,4758.93,756.99
		s1280.05,576.85,1280.05,1285.89S5464.77,3328.76,4758.93,3328.76z M4758.93,1535.84c-276.37,0-501.24,227.45-501.24,507.03
		s224.87,507.03,501.24,507.03c276.37,0,501.19-227.45,501.19-507.03S5035.3,1535.84,4758.93,1535.84z"/>
</g>
</svg>
