<?xml version="1.0" encoding="utf-8"?>
<!-- Generator: Adobe Illustrator 23.0.1, SVG Export Plug-In . SVG Version: 6.00 Build 0)  -->
<svg version="1.1" id="Camada_1" xmlns="http://www.w3.org/2000/svg" xmlns:xlink="http://www.w3.org/1999/xlink" x="0px" y="0px"
	 viewBox="0 0 2834.65 8503.94" style="enable-background:new 0 0 2834.65 8503.94;" xml:space="preserve">
<style type="text/css">
	.st0{fill:#1BD9B7;}
</style>
<g>
	<path class="st0" d="M1065.89,8306.97c-382.65,0-693.97-311.31-693.97-693.96s311.32-693.96,693.97-693.96
		s693.95,311.31,693.95,693.96S1448.54,8306.97,1065.89,8306.97z M1065.89,7341.29c-149.83,0-271.73,121.9-271.73,271.72
		s121.91,271.72,271.73,271.72s271.71-121.9,271.71-271.72S1215.72,7341.29,1065.89,7341.29z"/>
</g>
<g>
	<path class="st0" d="M1888.51,1584.89c-382.65,0-693.97-311.31-693.97-693.96s311.32-693.96,693.97-693.96
		s693.95,311.31,693.95,693.96S2271.17,1584.89,1888.51,1584.89z M1888.51,619.21c-149.83,0-271.73,121.9-271.73,271.72
		s121.91,271.72,271.73,271.72s271.71-121.9,271.71-271.72S2038.34,619.21,1888.51,619.21z"/>
</g>
<g>
	<polygon class="st0" points="1277.01,7190.63 854.77,7190.63 854.77,3526.58 1677.39,2703.96 1677.39,1289.23 2099.63,1289.23 
		2099.63,2878.85 1277.01,3701.47 	"/>
</g>
</svg>
