<?xml version="1.0" encoding="utf-8"?>
<!-- Generator: Adobe Illustrator 23.0.1, SVG Export Plug-In . SVG Version: 6.00 Build 0)  -->
<svg version="1.1" id="Camada_1" xmlns="http://www.w3.org/2000/svg" xmlns:xlink="http://www.w3.org/1999/xlink" x="0px" y="0px"
	 viewBox="0 0 14173.23 8503.94" style="enable-background:new 0 0 14173.23 8503.94;" xml:space="preserve">
<style type="text/css">
	.st0{fill:#1BD9B7;}
</style>
<g>
	<path class="st0" d="M1109.38,7657.29L4654.6,3213.63l7642.53-1076.53l-34.12-242.12L4524.15,2985.06L923.61,7498.06
		C985.6,7551.06,1047.58,7604.08,1109.38,7657.29z"/>
</g>
<g>
	<path class="st0" d="M13156.88,1626.66c171.49,261.42,98.32,613.62-163.11,785.11c-261.42,171.48-613.62,98.31-785.1-163.11
		c-171.49-261.43-98.32-613.63,163.09-785.11C12633.18,1292.06,12985.39,1365.23,13156.88,1626.66z M12952.42,1760.77
		c-97.54-148.69-297.86-190.31-446.55-92.77c-148.69,97.54-190.29,297.85-92.76,446.54c97.54,148.69,297.85,190.31,446.54,92.77
		C13008.34,2109.78,13049.96,1909.46,12952.42,1760.77z"/>
</g>
</svg>
