<?xml version="1.0" encoding="utf-8"?>
<!-- Generator: Adobe Illustrator 23.0.1, SVG Export Plug-In . SVG Version: 6.00 Build 0)  -->
<svg version="1.1" id="Camada_1" xmlns="http://www.w3.org/2000/svg" xmlns:xlink="http://www.w3.org/1999/xlink" x="0px" y="0px"
	 viewBox="0 0 2551.18 8503.94" style="enable-background:new 0 0 2551.18 8503.94;" xml:space="preserve">
<style type="text/css">
	.st0{fill:#1BD9B7;}
</style>
<g>
	<path class="st0" d="M908.16,7874.28c-341.84,0-619.95-278.1-619.95-619.94s278.11-619.94,619.95-619.94
		s619.93,278.1,619.93,619.94S1250,7874.28,908.16,7874.28z M908.16,7011.6c-133.84,0-242.75,108.89-242.75,242.74
		s108.9,242.74,242.75,242.74s242.73-108.89,242.73-242.74S1042.01,7011.6,908.16,7011.6z"/>
</g>
<g>
	<path class="st0" d="M1643.04,1869.19c-341.84,0-619.95-278.1-619.95-619.94s278.11-619.94,619.95-619.94
		s619.93,278.1,619.93,619.94S1984.88,1869.19,1643.04,1869.19z M1643.04,1006.52c-133.84,0-242.75,108.89-242.75,242.74
		s108.9,242.74,242.75,242.74s242.73-108.89,242.73-242.74S1776.89,1006.52,1643.04,1006.52z"/>
</g>
<g>
	<polygon class="st0" points="1096.76,6877.01 719.56,6877.01 719.56,3603.78 1454.44,2868.9 1454.44,1605.08 1831.64,1605.08 
		1831.64,3025.14 1096.76,3760.02 	"/>
</g>
</svg>
