<?xml version="1.0" encoding="utf-8"?>
<!-- Generator: Adobe Illustrator 23.0.1, SVG Export Plug-In . SVG Version: 6.00 Build 0)  -->
<svg version="1.1" id="Camada_1" xmlns="http://www.w3.org/2000/svg" xmlns:xlink="http://www.w3.org/1999/xlink" x="0px" y="0px"
	 viewBox="0 0 2834.65 8503.94" style="enable-background:new 0 0 2834.65 8503.94;" xml:space="preserve">
<style type="text/css">
	.st0{fill:#1BD9B7;}
</style>
<g>
	<polygon class="st0" points="1235.65,6529.02 593.85,5961.29 463.53,2974.15 1422.31,1890.33 1731.47,2163.84 883.19,3122.75 
		998.62,5768.22 1509.15,6219.84 	"/>
</g>
<g>
	<path class="st0" d="M1725.54,7365.29c-159.84,0-320.26-55.99-449.11-169.97v-0.01c-280.16-247.86-306.48-677.45-58.62-957.63
		c120.06-135.73,285.78-216.58,466.68-227.65c180.66-11.05,355.23,48.95,490.96,169.02c280.16,247.86,306.48,677.45,58.62,957.64
		C2100.22,7288.01,1913.27,7365.29,1725.54,7365.29z M1549.93,6886.15c109.67,97.06,277.93,86.73,374.99-22.96
		c97.03-109.7,86.74-277.91-22.95-374.96c-53.16-47-121.17-70.55-192.26-66.18c-70.83,4.34-135.71,35.99-182.73,89.13
		C1429.95,6620.89,1440.24,6789.1,1549.93,6886.15L1549.93,6886.15z"/>
</g>
<g>
	<path class="st0" d="M1885.74,2495.2c-159.84,0-320.26-55.99-449.11-169.97v-0.01c-135.73-120.07-216.56-285.8-227.64-466.67
		c-11.07-180.88,48.94-355.25,169.02-490.97c120.06-135.72,285.78-216.57,466.66-227.64c180.83-11.07,355.23,48.94,490.96,169.02
		c280.18,247.84,306.51,677.44,58.64,957.63C2260.42,2417.92,2073.48,2495.2,1885.74,2495.2z M1710.13,2016.05
		c109.67,97.06,277.93,86.73,374.99-22.96c97.03-109.7,86.74-277.91-22.98-374.96c-53.16-47.03-121.79-70.49-192.24-66.18
		c-70.83,4.34-135.71,35.99-182.73,89.13c-47.02,53.15-70.52,121.42-66.18,192.24C1625.34,1904.14,1656.99,1969.04,1710.13,2016.05
		L1710.13,2016.05z"/>
</g>
</svg>
