<?xml version="1.0" encoding="utf-8"?>
<!-- Generator: Adobe Illustrator 23.0.1, SVG Export Plug-In . SVG Version: 6.00 Build 0)  -->
<svg version="1.1" id="Camada_1" xmlns="http://www.w3.org/2000/svg" xmlns:xlink="http://www.w3.org/1999/xlink" x="0px" y="0px"
	 viewBox="0 0 3061.42 3061.42" style="enable-background:new 0 0 3061.42 3061.42;" xml:space="preserve">
<style type="text/css">
	.st0{fill:#FFFFFF;}
	.st1{fill:#FFFFFF;stroke:#FFFFFF;stroke-miterlimit:10;}
</style>
<path class="st0" d="M397.69,518.68l2.96,2038.35H196.52V518.68c0,0-11.83-266.26,281.05-301.76v198.21
	C477.57,415.14,397.59,447.66,397.69,518.68z"/>
<path class="st0" d="M2538.84,421.05c0,0,75.44,4.44,84.31,102.07h201.91c0,0,2.22-277.35-286.23-308.41l-2061.27,2.22v198.21"/>
<path class="st0" d="M2623.16,2517.83c0,0,17.75,117.6-99.85,126.47v201.91c0,0,233.12,24.41,303.98-268.48l-2.22-2054.62h-201.91"
	/>
<path class="st0" d="M2523.31,2644.3"/>
<path class="st0" d="M400.65,2557.03c0,0,3.7,82.84,99.11,87.27v202.41c0,0-280.31-4.2-303.24-289.68"/>
<polyline class="st0" points="499.76,2644.3 2523.31,2644.3 2523.31,2846.21 499.76,2846.71 "/>
<path class="st1" d="M2245.28,553.96c0,0-196.45-20.22-338.01-17.33l193.56,381.35h144.45V553.96z"/>
<path class="st1" d="M1398.8,1377.32v-372.68c0,0,34.67-355.35,340.9-444.9c0,0,112.7-23.02,167.56-23.11l193.56,381.35h-98.23
	c0,0-164.35,3.21-173.34,147.02l-3.85,312.33h407.03l-52.64,416.98h-351.81l-2.57,1051.59H1398.8V1795.58l-350.21-1.28v-412.16
	L1398.8,1377.32z"/>
</svg>
