<?xml version="1.0" encoding="utf-8"?>
<!-- Generator: Adobe Illustrator 23.0.1, SVG Export Plug-In . SVG Version: 6.00 Build 0)  -->
<svg version="1.1" id="Camada_1" xmlns="http://www.w3.org/2000/svg" xmlns:xlink="http://www.w3.org/1999/xlink" x="0px" y="0px"
	 viewBox="0 0 8503.94 8503.94" style="enable-background:new 0 0 8503.94 8503.94;" xml:space="preserve">
<style type="text/css">
	.st0{fill:#FFFFFF;stroke:#FFFFFF;stroke-miterlimit:10;}
</style>
<path class="st0" d="M8148.24,4324.61c0-1692.28-1141.03-2706.05-1141.03-2706.05c-249.81-260.55-504.99-463.52-754.3-621.74
	C5704.51,670.34,5069.4,474.46,4390.3,451.97c-84.44,2.69-131.52,9.13-131.52,9.13c-173.73-5.26-340.67,2.3-500.58,20.26
	c-387.93,49.65-758.04,156.25-1101.71,311.12c-5.4,2.51-10.91,4.96-16.28,7.47c-0.69,0.32-1.38,0.65-2.07,0.97
	c-841.33,395.44-1306.48,993.25-1306.48,993.25c-326.15,365.38-542.6,737.96-686.15,1078.91
	C510.1,3203.23,418.61,3556,378.31,3924.22c-18.51,203.64-8.98,325.6-8.98,325.6c-7.69,54.86-12.12,111.43-13.81,169.11
	c2.45,149.25,13.09,296.48,31.84,441.21C476.43,5429.82,717.02,5969,717.02,5969C1635,7828.91,3122.4,8041.78,3122.4,8041.78
	c138.37,10.64,180.94-175.61,180.94-175.61l-26.61-729.06c-287.37,69.18-691.82,0-691.82,0
	c-489.59-90.47-601.34-451.16-601.34-451.16c-74.51-302.15-335.27-517.39-335.27-517.39c-340.58-207.54-228.83-287.37-228.83-287.37
	c202.22-58.53,276.73,5.33,276.73,5.33c335.26,117.07,484.27,383.15,484.27,383.15c111.76,196.9,292.69,298.01,292.69,298.01
	c345.91,266.08,824.86,0,824.86,0c-21.29-138.36,234.15-510.88,234.15-510.88c-1782.75-111.76-1756.15-1708.25-1756.15-1708.25
	c-106.43-686.49,393.8-1255.9,393.8-1255.9c-180.93-415.09,37.25-1021.76,37.25-1021.76c404.45-69.18,1069.65,393.8,1069.65,393.8
	c984.51-282.04,1979.65,0,1979.65,0c750.35-494.91,1027.08-399.12,1027.08-399.12c244.8,351.24,58.54,1027.08,58.54,1027.08
	c729.07,723.74,244.8,1953.05,244.8,1953.05c-377.84,947.25-1623.1,1019.09-1623.1,1019.09
	c207.55,143.68,255.44,518.86,255.44,518.86l7.98,1181.4c-31.93,367.19,215.53,277.17,215.53,277.17l287.37-101.56
	c1333.07-534.82,1907.81-1684.3,1907.81-1684.3C8172.64,5450.14,8148.24,4324.61,8148.24,4324.61z"/>
</svg>
