<?xml version="1.0" encoding="utf-8"?>
<!-- Generator: Adobe Illustrator 23.0.1, SVG Export Plug-In . SVG Version: 6.00 Build 0)  -->
<svg version="1.1" id="Camada_1" xmlns="http://www.w3.org/2000/svg" xmlns:xlink="http://www.w3.org/1999/xlink" x="0px" y="0px"
	 viewBox="0 0 3061.42 3061.42" style="enable-background:new 0 0 3061.42 3061.42;" xml:space="preserve">
<style type="text/css">
	.st0{fill:#FFFFFF;stroke:#FFFFFF;stroke-miterlimit:10;}
</style>
<path class="st0" d="M1553.14,971.98c-310.06,0-561.41,251.35-561.41,561.41s251.35,561.41,561.41,561.41
	s561.41-251.35,561.41-561.41S1863.2,971.98,1553.14,971.98z M1553.14,1894.38c-199.37,0-360.99-161.62-360.99-360.99
	s161.62-360.99,360.99-360.99c199.37,0,360.99,161.62,360.99,360.99S1752.51,1894.38,1553.14,1894.38z"/>
<circle class="st0" cx="2114.55" cy="950.11" r="130.09"/>
<path class="st0" d="M651.75,2059.27c0,0,6.87,285.07,339.97,360.29v205.88c0,0-486.47-11.88-557.73-566.18H651.75z"/>
<path class="st0" d="M1016,649.77c0,0-312.78,22.4-368.21,335.86l3.96,1073.64H433.99V985.61c0,0,67.31-514,582.01-549.64h1070.98
	v217.76"/>
<polyline class="st0" points="991.73,2625.45 2085.01,2625.45 2085.01,2419.56 991.73,2419.56 "/>
<path class="st0" d="M2085.01,2625.45c490.95-51.47,542.42-552.32,542.42-552.32l-215.78-13.86c0,0-57.41,314.76-326.64,360.29"/>
<polyline class="st0" points="2627.43,2073.13 2627.43,1002.15 2411.65,1002.15 2411.65,2059.27 "/>
<path class="st0" d="M2627.43,1002.15c0,0-37.61-494.91-540.44-566.17v217.76c0,0,308.82,87.1,324.66,348.42"/>
</svg>
