<?xml version="1.0" encoding="utf-8"?>
<!-- Generator: Adobe Illustrator 23.0.1, SVG Export Plug-In . SVG Version: 6.00 Build 0)  -->
<svg version="1.1" id="Camada_1" xmlns="http://www.w3.org/2000/svg" xmlns:xlink="http://www.w3.org/1999/xlink" x="0px" y="0px"
	 viewBox="0 0 3061.42 3061.42" style="enable-background:new 0 0 3061.42 3061.42;" xml:space="preserve">
<style type="text/css">
	.st0{fill:#FFFFFF;stroke:#FFFFFF;stroke-miterlimit:10;}
	.st1{fill:#FFFFFF;}
</style>
<circle class="st0" cx="971.83" cy="993.9" r="176.19"/>
<rect x="810.8" y="1314.08" class="st0" width="306.92" height="992.75"/>
<path class="st1" d="M581.56,698.13l2.53,1740.47h-174.3V698.13c0,0-10.1-227.35,239.98-257.66v169.25
	C649.76,609.72,581.47,637.49,581.56,698.13z"/>
<path class="st1" d="M2409.8,614.77c0,0,64.42,3.79,71.99,87.15h172.4c0,0,1.89-236.82-244.4-263.34l-1760.04,1.89v169.25"/>
<path class="st1" d="M2481.8,2405.13c0,0,15.16,100.41-85.25,107.99v172.4c0,0,199.05,20.84,259.55-229.24l-1.89-1754.36h-172.4"/>
<path class="st1" d="M2396.54,2513.12"/>
<path class="st1" d="M584.08,2438.6c0,0,3.16,70.73,84.62,74.52v172.83c0,0-239.35-3.58-258.92-247.35"/>
<polyline class="st1" points="668.71,2513.12 2396.54,2513.12 2396.54,2685.52 668.71,2685.95 "/>
<path class="st0" d="M1634.83,2302.68v-545.63c0,0,13.26-183.77,155.35-195.14h81.47c0,0,87.15,7.58,115.57,149.67v591.1h306.92
	v-683.93c0,0-22.73-291.76-272.82-314.5c0,0-172.4-34.1-263.34,32.21c0,0-107.99,53.05-113.67,109.88l-9.47,1.89v-134.51h-297.45
	v988.96H1634.83z"/>
<g>
	<path class="st1" d="M1865.63,1566.8c4.84,1.09,9.67,2.18,14.51,3.27c1.08-8,2.17-16.01,3.25-24.01c-6.5-0.38-12.4-1.36-18.8-3
		c-6.39-1.64-13.27,2.09-15.04,8.54c-1.73,6.3,2.12,13.39,8.54,15.04c8.27,2.12,16.77,3.38,25.29,3.87
		c13.71,0.8,16.69-20.98,3.25-24.01c-4.84-1.09-9.67-2.18-14.51-3.27c-6.43-1.45-13.23,1.96-15.04,8.54
		C1855.41,1557.91,1859.17,1565.35,1865.63,1566.8L1865.63,1566.8z"/>
</g>
<g>
	<path class="st1" d="M1981.41,1702.69c0,11.95,0,23.91,0,35.86c0,15.73,24.45,15.76,24.45,0c0-8.59,0-17.17,0-25.76
		c0-15.73-24.45-15.76-24.45,0c0,8.59,0,17.17,0,25.76c0,15.73,24.45,15.76,24.45,0c0-11.95,0-23.91,0-35.86
		C2005.85,1686.96,1981.41,1686.93,1981.41,1702.69L1981.41,1702.69z"/>
</g>
</svg>
