<?xml version="1.0" encoding="utf-8"?>
<!-- Generator: Adobe Illustrator 23.0.1, SVG Export Plug-In . SVG Version: 6.00 Build 0)  -->
<svg version="1.1" id="Camada_1" xmlns="http://www.w3.org/2000/svg" xmlns:xlink="http://www.w3.org/1999/xlink" x="0px" y="0px"
	 viewBox="0 0 1366 768" style="enable-background:new 0 0 1366 768;" xml:space="preserve">
<style type="text/css">
	.st0{fill:#FFFFFF;stroke:#FFFFFF;stroke-miterlimit:10;}
	.st1{fill:none;stroke:#1BD9B7;stroke-width:8;stroke-miterlimit:10;}
	.st2{fill:#1BD9B7;stroke:#1BD9B7;stroke-miterlimit:10;}
</style>
<path class="st0" d="M613.39,433.83l38.52,0.09c0,0,6.3-1.17,8.64-6.48c0,0,2.79-8.46,3.33-15.39c0,0-0.27-2.43-1.53-3.78
	c0,0,2.79-2.16,3.51-5.04l2.43-10.89c0,0,0.99-7.29-6.48-8.1H624.1l-1.98,9.09h30.51c0,0,2.97,0.9,2.07,3.6l-0.63,3.24
	c0,0-1.08,3.15-4.32,3.15h-27.99l-1.89,9.09l28.62,0.18c0,0,3.51,0.27,1.89,4.86l-1.08,4.68c0,0-1.44,3.15-4.77,2.79h-29.16
	L613.39,433.83z"/>
<path class="st0" d="M745.96,433.92h-12.6l7.2-35.1c0,0,0.36-5.31-3.15-5.58h-9.27c0,0-5.31,0.63-7.92,8.82l-6.93,31.86h-12.42
	l7.29-34.11c0,0,0.72-6.3-2.97-6.57h-9.27c0,0-4.68,1.17-6.93,6.75l-7.83,33.93h-12.42l7.11-33.57c0,0,3.87-13.86,16.38-16.11h17.46
	c0,0,4.86-0.45,7.2,6.57c0,0,5.4-5.94,10.62-6.57h18.45c0,0,8.73,1.71,7.56,13.14C752.35,408.81,745.96,433.92,745.96,433.92z"/>
<polyline class="st1" points="607.78,383.76 587.86,408.61 607.78,433.44 "/>
<polygon class="st2" points="638.63,436.68 636.71,445.8 678.47,445.8 680.51,436.68 "/>
<polyline class="st1" points="759.06,384.24 778.98,409.09 759.06,433.92 "/>
</svg>
