<?xml version="1.0" encoding="utf-8"?>
<!-- Generator: Adobe Illustrator 23.0.1, SVG Export Plug-In . SVG Version: 6.00 Build 0)  -->
<svg  version="1.1" id="Camada_1" xmlns="http://www.w3.org/2000/svg" xmlns:xlink="http://www.w3.org/1999/xlink" x="0px" y="0px"
	 viewBox="0 0 1366 768" style="enable-background:new 0 0 1366 768;" xml:space="preserve">
<style type="text/css">
	.st0{fill:#FFFFFF;stroke:#FFFFFF;stroke-miterlimit:10;}
	.st1{fill:none;stroke:#1BD9B7;stroke-width:8;stroke-miterlimit:10;}
</style>
<path class="st0" d="M511.19,344.29c-6.72,1.08-9.48,7.2-9.48,7.2l-3,14.16c0.48,6.84,5.76,7.08,5.76,7.08l27.72,0.12
	c2.16,0.12,2.52,1.92,2.52,1.92l-1.56,7.56c-1.32,3-2.76,2.52-2.76,2.52h-35.76l-1.92,8.88h43.32c6.84-0.72,9.24-8.64,9.24-8.64
	l2.64-13.92c-0.24-6.72-6.36-7.32-6.36-7.32h-27.84c-2.04-0.48-1.56-2.28-1.56-2.28s0.96-4.08,1.2-5.76c0.24-1.68,2.28-2.4,2.28-2.4
	h36.36l1.92-9.12H511.19z"/>
<path class="st0" d="M630.65,393.97l-12.66,0.06l8.91-41.46c0,0,2.61-7.83,10.44-8.28h38.43l-1.8,9.09h-31.86
	c0,0-3.15,0.81-3.6,3.87l-1.62,7.56l34.56,0.09l-1.89,9l-34.65,0.09L630.65,393.97z"/>
<path class="st0" d="M870.47,344.29h-28.68c-13.56,1.32-17.46,14.16-17.46,14.16l-7.56,35.52h12.6l3.36-15.84h31.14l-3.36,15.84
	h12.66l7.5-35.64C881.75,345.55,870.47,344.29,870.47,344.29z M867.89,359.53l-1.98,9.6h-31.2l2.34-10.44
	c2.28-5.04,8.1-5.34,8.1-5.34h16.62C868.97,353.83,867.89,359.53,867.89,359.53z"/>
<path class="st0" d="M328.33,393.18l38.52,0.09c0,0,6.3-1.17,8.64-6.48c0,0,2.79-8.46,3.33-15.39c0,0-0.27-2.43-1.53-3.78
	c0,0,2.79-2.16,3.51-5.04l2.43-10.89c0,0,0.99-7.29-6.48-8.1h-37.71l-1.98,9.09h30.51c0,0,2.97,0.9,2.07,3.6l-0.63,3.24
	c0,0-1.08,3.15-4.32,3.15H336.7l-1.89,9.09l28.62,0.18c0,0,3.51,0.27,1.89,4.86l-1.08,4.68c0,0-1.44,3.15-4.77,2.79h-29.16
	L328.33,393.18z"/>
<path class="st0" d="M460.9,393.73h-12.6l7.2-35.1c0,0,0.36-5.31-3.15-5.58h-9.27c0,0-5.31,0.63-7.92,8.82l-6.93,31.86h-12.42
	l7.29-34.11c0,0,0.72-6.3-2.97-6.57h-9.27c0,0-4.68,1.17-6.93,6.75l-7.83,33.93h-12.42l7.11-33.57c0,0,3.87-13.86,16.38-16.11h17.46
	c0,0,4.86-0.45,7.2,6.57c0,0,5.4-5.94,10.62-6.57h18.45c0,0,8.73,1.71,7.56,13.14C467.29,368.62,460.9,393.73,460.9,393.73z"/>
<polygon class="st0" points="689.06,394 700.97,394.02 709.64,353.37 727.14,353.37 729.08,344.29 681.5,344.29 679.55,353.34 
	697.71,353.37 "/>
<path class="st0" d="M738.63,394.02h15.66c0,0,7.34-0.05,12.92-6.59c0,0,2.64,6.03,9.78,6.59c7.14,0.55,16.41,0,16.41,0
	s10.44,0.27,16.6-12.51l8.15-37.21h-12.55l-7.11,33.21c0,0-1.66,6.84-8.59,7.43h-8.15c0,0-7.2-0.05-6.03-7.56l7.07-33.08h-12.29
	l-7.33,33.93c0,0-1.89,6.52-8.96,6.71l-8.73-0.09c0,0-6.71-0.05-5.04-8.6l6.93-31.95h-12.64l-7.56,36.14
	C727.16,380.43,725.18,391.95,738.63,394.02z"/>
<path class="st0" d="M946.49,354.19c-1.62-10.08-11.34-9.9-11.34-9.9h-33.72c-8.04,0.72-10.17,7.98-10.17,7.98L882.32,394
	l12.63-0.03l4.17-19.59l24,0.03c6.45,0.66,5.64,6.39,5.64,6.39l-2.64,13.17h12.63l2.93-14.9c0.9-5.27-4.14-9.93-4.14-9.93
	C947.61,363.58,946.49,354.19,946.49,354.19z M932.94,361.75c-1.76,3.33-7.15,3.51-7.15,3.51h-24.75l1.89-8.77
	c1.03-2.88,3.6-3.06,3.6-3.06h21.73c3.24,0.09,4.68,1.13,4.68,1.13C935.46,356.94,932.94,361.75,932.94,361.75z"/>
<path class="st0" d="M995.09,393.97L947.88,394l8.91-41.61c0,0,2.39-7.38,10.08-8.1h38.79l-1.93,9l-31.46,0.05
	c0,0-3.38,0.4-3.96,3.87l-1.62,7.56l34.52,0.04l-1.76,8.68l-34.65,0.09l-2.43,11.65l34.61,0.09L995.09,393.97z"/>
<polyline class="st1" points="320.22,343.11 300.3,367.97 320.22,392.8 "/>
<polyline class="st1" points="1015.85,344.08 1035.77,368.94 1015.85,393.76 "/>
<path class="st0" d="M605.45,344.29h-25.98c-14.1-0.84-19.2,13.5-19.2,13.5l-4.92,24.12c0.66,11.34,11.04,12.06,11.04,12.06h28.74
	c11.4-0.78,16.14-12.3,16.14-12.3l5.1-23.4C617.51,345.43,605.45,344.29,605.45,344.29z M603.41,359.65l-3.72,18.06
	c-1.5,6-7.98,7.26-7.98,7.26h-16.98c-7.56-0.36-6-7.86-6-7.86l3.6-16.74c2.4-7.38,9.6-7.02,9.6-7.02l15.78,0
	C603.95,354.01,603.41,359.65,603.41,359.65z"/>
</svg>
