<?xml version="1.0" encoding="utf-8"?>
<!-- Generator: Adobe Illustrator 23.0.1, SVG Export Plug-In . SVG Version: 6.00 Build 0)  -->
<svg version="1.1" id="Camada_1" xmlns="http://www.w3.org/2000/svg" xmlns:xlink="http://www.w3.org/1999/xlink" x="0px" y="0px"
	 viewBox="0 0 14173.23 2551.18" style="enable-background:new 0 0 14173.23 2551.18;" xml:space="preserve">
<style type="text/css">
	.st0{fill:#FFFFFF;}
	.st1{fill:#1BD9B7;}
</style>
<g>
	<path class="st0" d="M4328.73,759.98c-124.05,19.94-175,132.91-175,132.91l-55.38,261.39c8.86,126.27,106.33,130.7,106.33,130.7
		l511.71,2.22c39.87,2.22,46.52,35.44,46.52,35.44l-28.8,139.56c-24.37,55.38-50.95,46.52-50.95,46.52h-660.13l-35.44,163.92h799.68
		c126.27-13.29,170.57-159.49,170.57-159.49l48.73-256.96c-4.43-124.05-117.41-135.13-117.41-135.13h-513.92
		c-37.66-8.86-28.8-42.09-28.8-42.09s17.72-75.32,22.15-106.33c4.43-31.01,42.09-44.3,42.09-44.3h671.2l35.44-168.35H4328.73z"/>
	<path class="st0" d="M3987.59,1681.87h-11.44l39.43-182.39l670.5,0.48v-0.01c0.13-0.02,19.38,3.82,39.18-40.59l28.17-136.47
		c-1.79-5.71-9.84-24.95-37.56-26.49l-511.23-2.19c-1.44-0.05-106.18-6.35-115.5-139.28l-0.1-1.3l56.27-264.54
		c2.16-4.8,54.46-117.75,181.95-138.23l1.46-0.12h799.99l-39.34,186.82h-676.95c-6.17,2.56-31.54,14.34-34.68,36.38
		c-4.44,31.06-21.59,104.05-22.31,107.15c-0.07,0.3-2.54,10.5,2.64,19.01c3.39,5.55,9.54,9.49,18.29,11.73h512.8
		c2.11,0.16,121.96,13.42,126.63,144.03l0.04,1.04l-0.19,1.02l-48.74,256.96c-2.12,7.17-47.82,153.18-178.68,166.95L3987.59,1681.87
		z M3999.03,1663.41h788.24c117.84-12.46,161.32-151.54,161.74-152.94l48.3-254.98c-4.64-113.28-104.79-124.82-109.06-125.25
		l-514.07,0.05l-1.05-0.24c-14.39-3.39-24.81-10.32-30.97-20.61c-9.16-15.29-4.81-32.13-4.62-32.85
		c0.11-0.49,17.6-75.01,21.93-105.26c5.16-36.13,46.4-51.08,48.15-51.7l3.07-0.52h663.71l31.57-149.9h-776.49
		c-111.79,18.35-162.06,116.56-166.94,126.65l-54.88,259.06c8.73,115.48,93.82,120.68,97.46,120.85l511.32,2.2
		c37.67,2.08,52.75,28.94,55.53,42.86l0.37,1.84l-29.77,143.24c-24.38,55.46-52.77,53.77-60.54,52.04h-651.53L3999.03,1663.41z"/>
</g>
<g>
	<path class="st0" d="M6533.95,1677.07l-233.7,1.11l164.48-765.35c0,0,48.18-144.54,192.72-152.85h709.42l-33.23,167.8H6745.5
		c0,0-58.15,14.95-66.46,71.44l-29.91,139.56l637.98,1.66l-34.89,166.14l-639.64,1.66L6533.95,1677.07z"/>
	<path class="st0" d="M6288.81,1687.46l166.9-776.57c0.77-2.49,52.14-151.56,201.21-160.13l721.19-0.02l-36.88,186.27h-594.45
		c-7.62,2.26-51.79,17.32-58.6,63.55l-27.62,129.01l637.93,1.67l-38.76,184.55l-639.66,1.66l-78.63,368.81L6288.81,1687.46z
		 M6657.45,769.21c-135.87,7.82-183.5,145.16-183.97,146.55l-161.79,753.13l214.79-1.02l78.65-368.85l639.61-1.66l31.02-147.72
		l-638.02-1.67l32.29-150.7c8.99-61.24,70.57-77.76,73.18-78.44l2.3-0.29h580.56l29.56-149.35H6657.45z"/>
</g>
<g>
	<path class="st0" d="M10961.01,759.98h-529.43c-250.32,24.37-322.31,261.39-322.31,261.39l-139.56,655.7h232.6l62.03-292.41h574.84
		l-62.03,292.41h233.7l138.45-657.91C11169.24,783.24,10961.01,759.98,10961.01,759.98z M10913.39,1041.31l-36.55,177.21h-575.95
		l43.2-192.72c42.09-93.04,149.52-98.58,149.52-98.58h306.8C10933.32,936.09,10913.39,1041.31,10913.39,1041.31z"/>
	<path class="st0" d="M11018.34,1686.3h-252.59l62.03-292.4h-555.97l-62.02,292.4h-251.48l141.93-666.85
		c0.94-3.19,76.92-243.97,330.45-268.66l530.84-0.05l0.51,0.05c2.17,0.24,216.91,27.07,196.45,269.13L11018.34,1686.3z
		 M10788.54,1667.84h214.82l136.91-650.59c18.48-219.44-166.46-246.4-179.8-248.05h-528.88
		c-240.13,23.43-312.77,252.54-313.48,254.85l-136.99,643.78h213.71l62.02-292.4h593.72L10788.54,1667.84z M10884.36,1227.76h-595
		l46.31-205.75c43.91-97.05,152.84-103.76,157.46-104l307.28-0.01c47.61,3.15,81.89,18.26,102.51,44.91
		c27.57,35.63,19.88,78.32,19.53,80.12l-0.03,0.14L10884.36,1227.76z M10312.42,1209.3h556.91l35-169.74
		c0.27-1.58,6-37.09-16.13-65.53c-17.27-22.19-47.02-34.84-88.4-37.6l-306.19,0.02c-0.53,0.05-101.25,6.48-140.73,92.31
		L10312.42,1209.3z"/>
</g>
<g>
	<path class="st0" d="M953.23,1662.52l711.08,1.66c0,0,116.3-21.6,159.49-119.62c0,0,51.5-156.17,61.47-284.1
		c0,0-4.98-44.86-28.24-69.78c0,0,51.5-39.87,64.79-93.04l44.86-201.03c0,0,18.28-134.57-119.62-149.53h-696.12l-36.55,167.8h563.21
		c0,0,54.83,16.61,38.21,66.46l-11.63,59.81c0,0-19.94,58.15-79.75,58.15h-516.69l-34.89,167.8l528.32,3.32
		c0,0,64.79,4.98,34.89,89.72l-19.94,86.39c0,0-26.58,58.15-88.05,51.5H989.78L953.23,1662.52z"/>
	<path class="st0" d="M1665.99,1673.26l-724.26-1.53l40.66-182.91h545.69c51.62,5.66,76.09-39.03,79.29-45.37l19.7-85.37
		c9.8-27.92,10.16-48.42,1.36-61.92c-9.58-14.71-27.78-16.49-27.97-16.51l-538.93-3.37l38.7-186.19h524.21
		c52.6,0,70.84-51.4,71.01-51.91l11.3-58.58c4.18-12.79,3.86-22.74-0.68-31.57c-7.66-14.92-25.3-22.17-30.01-23.89h-573.13
		l40.57-186.27h703.56c44.73,4.8,78.15,21.57,100.31,49.89c36.56,46.74,28.8,107.54,28.46,110.11l-45.01,201.8
		c-11.01,44.03-45.64,78.68-60.89,92.22c19.8,27.15,24.31,65.78,24.51,67.57c-9.92,129.3-61.36,286.44-61.89,288.01
		C1787.6,1649.61,1670.94,1672.34,1665.99,1673.26z M964.73,1653.32l699.59,1.63c-0.59-0.05,110.38-21.85,151.03-114.11
		c0.19-0.72,50.95-155.76,60.72-281.07c0,0.01,0,0.01,0,0.01c-0.17,0-5.26-40.81-25.79-62.79l-6.9-7.39l7.99-6.2
		c0.5-0.38,49.16-38.65,61.5-87.98l44.81-200.81l0,0c-0.05,0.01,6.78-55.19-24.94-95.6c-18.98-24.18-48.14-38.56-86.67-42.74
		l-687.7,0.05l-32.53,149.35l554.43,0.4c1.21,0.36,29.65,9.22,42.15,33.38c6.9,13.33,7.62,28.41,2.14,44.82l-11.32,58.65
		c-0.55,1.88-23.17,65.62-88.8,65.62h-509.19l-31.06,149.41l517.04,3.25c1.77,0.11,28.01,2.38,42.67,24.88
		c12.1,18.56,12.38,44.52,0.87,77.14l-20.25,87.16c-0.29,0.64-29.93,64.15-97.44,56.84l-529.89,0.05L964.73,1653.32z"/>
</g>
<g>
	<path class="st0" d="M3400.47,1672.64h-232.6l132.91-647.94c0,0,6.65-98.02-58.15-103.01h-171.12c0,0-98.02,11.63-146.2,162.82
		l-127.93,588.13h-229.27l134.57-629.67c0,0,13.29-116.3-54.83-121.28h-171.12c0,0-86.39,21.6-127.93,124.6l-144.54,626.35h-229.27
		l131.25-619.7c0,0,71.44-255.85,302.37-297.39h322.31c0,0,89.72-8.31,132.91,121.28c0,0,99.68-109.65,196.04-121.28h340.59
		c0,0,161.16,31.57,139.56,242.56S3400.47,1672.64,3400.47,1672.64z"/>
	<path class="st0" d="M3407.64,1681.87h-251.08l135.19-659.03l0,0c-0.09,0.01,4.96-87.74-49.83-91.95l-170.41,0.03
		c-2.65,0.41-91.81,13.35-137.4,156.39l-129.28,594.57H2556.7l136.95-640.83l0,0c-0.04,0,6.98-65.42-18.14-95.69
		c-7.36-8.87-16.63-13.6-28.34-14.46L2478,930.92c-9.44,2.8-83.84,27.54-120.64,118.83l-145.76,632.13h-248.01l133.62-630.85
		c0.87-3.18,75.84-262.49,309.77-304.56l323.94-0.14c2.99-0.35,89.97-6.89,136.56,113.39c28.49-28.61,110-103.51,191.29-113.33
		l341.7-0.06c3.47,0.5,170.93,35.87,148.74,252.73c-21.43,209.25-138.62,671.23-139.8,675.87L3407.64,1681.87z M3179.18,1663.41
		h214.09c14.76-58.71,117.73-472.37,137.57-666.23c20.51-200.31-130.62-232.27-132.15-232.57l-338.81,0.17
		c-90.78,11.02-188.24,117.19-189.21,118.26l-10.61,11.66l-4.98-14.95c-40.17-120.53-120.01-115.28-123.34-115.01l-323.12,0.04
		c-220.77,39.86-292.78,288.14-293.48,290.64l-128.75,607.99h210.53l142.89-619.19c43.24-107.52,130.98-130.55,134.69-131.48
		l2.24-0.28h171.12c17.43,1.25,31.3,8.36,41.9,21.13c30.16,36.41,22.44,107.42,22.09,110.43l-132.32,619.4h210.42l126.34-580.88
		c49.66-155.9,149.9-169.51,154.13-170.02l172.21-0.06c59.17,4.52,69.87,75.8,67.37,112.86L3179.18,1663.41z"/>
</g>
<g>
	<polygon class="st1" points="3304.2,1688.39 3268.76,1856.75 4039.65,1856.75 4077.3,1688.39 	"/>
	<path class="st1" d="M4047.03,1865.98h-789.65l39.33-186.82h792.11L4047.03,1865.98z M3280.13,1847.52h752.12l33.53-149.9h-754.09
		L3280.13,1847.52z"/>
</g>
<g>
	<polygon class="st0" points="7612.2,1677.62 7832.05,1677.9 7992.1,927.51 8315.24,927.51 8350.96,759.98 7472.64,759.98 
		7436.64,926.95 7771.97,927.51 	"/>
	<path class="st0" d="M7839.52,1687.14l-238.73-0.31l159.77-750.12l-335.35-0.55l39.98-185.42h897.18l-39.65,185.99h-323.14
		L7839.52,1687.14z M7623.6,1668.41l201,0.25l160.04-750.39h323.14l31.79-149.07h-859.47l-32.03,148.54l335.3,0.55L7623.6,1668.41z"
		/>
</g>
<g>
	<path class="st0" d="M8527.35,1677.9h289.08c0,0,135.4-0.83,238.41-121.56c0,0,48.73,111.31,180.54,121.56
		c131.8,10.25,302.93,0,302.93,0s192.72,4.98,306.53-230.93l150.36-686.99h-231.76l-131.25,613.05c0,0-30.74,126.27-158.66,137.07
		h-150.36c0,0-132.91-0.83-111.31-139.56l130.42-610.56h-226.78l-135.4,626.35c0,0-34.89,120.45-165.31,123.77l-161.16-1.66
		c0,0-123.77-0.83-93.04-158.66l127.93-589.8h-233.43l-139.56,667.05C8315.52,1427.03,8278.97,1639.69,8527.35,1677.9z"/>
	<path class="st0" d="M9372.11,1691.65c-45.08,0-93.54-1.14-137.45-4.55c-110.43-8.58-164.4-84.12-181.82-114.57
		c-103.13,112.47-230.81,114.56-236.36,114.6l-290.54-0.11c-82.35-12.66-143.1-45.47-180.55-97.5
		c-53.59-74.44-39.58-160.42-38.96-164.05l141.15-674.73h252.36l-130.35,600.98c-9.88,50.72-4.27,89.53,16.69,115.15
		c25.93,31.68,66.97,32.33,67.39,32.33l161.19,1.66c121.92-3.12,156.02-115.97,156.34-117.11l136.83-633.01h245.63l-132.81,621.72
		c-6.03,38.88,0.33,70.03,19.03,92.07c30.04,35.41,82.81,36.32,83.34,36.32h150.29c118.81-10.06,148.49-125.15,149.69-130.04
		l132.76-620.08h250.69l-153.51,700.23c-115.04,238.49-313.22,236.36-315.07,236.15
		C9537.45,1687.18,9461.45,1691.65,9372.11,1691.65z M9057.36,1539.18l5.93,13.45c0.47,1.06,48.36,106.4,172.8,116.07
		c129.69,10.07,299.96,0.08,301.67-0.01c2.71,0.16,188.62,1.51,298.3-224.76l147.67-674.73h-212.83l-129.7,605.75
		c-0.38,1.58-33.9,133.11-166.91,144.34l-151.13,0.04c-2.55-0.02-61.62-0.87-97.24-42.72c-22.4-26.32-30.21-62.48-23.2-107.49
		l128.13-599.91h-207.92l-133.83,619.07c-0.52,1.89-38.5,127.6-174.1,131.06l-161.49-1.66c-2-0.02-50.15-0.78-81.51-39.1
		c-24.61-30.07-31.5-74-20.49-130.56l125.53-578.8h-214.47l-138.03,659.72c-0.07,0.48-13.17,81.96,35.95,150
		c34.36,47.61,90.73,77.81,167.55,89.75h288.37c1.24-0.01,132.52-2.44,231.39-118.32L9057.36,1539.18z"/>
</g>
<g>
	<path class="st0" d="M12364.34,942.73c-29.9-186.08-209.34-182.75-209.34-182.75h-622.47
		c-148.42,13.29-187.74,147.31-187.74,147.31l-165.03,770.33l233.15-0.55l76.98-361.63l443.04,0.55
		c119.07,12.18,104.11,117.96,104.11,117.96l-48.73,243.12h233.15l54-274.96c16.61-97.19-76.42-183.31-76.42-183.31
		C12385.11,1116.07,12364.34,942.73,12364.34,942.73z M12114.3,1082.29c-32.4,61.47-132.08,64.79-132.08,64.79h-456.88l34.89-161.99
		c19.11-53.16,66.46-56.49,66.46-56.49h401.23c59.81,1.66,86.39,20.77,86.39,20.77C12160.82,993.41,12114.3,1082.29,12114.3,1082.29
		z"/>
	<path class="st0" d="M11168.34,1686.88l167.43-781.53c0.58-2.06,43.03-140.87,195.95-154.57l623.28-0.04
		c1.93-0.08,187.62-1.32,218.46,190.53l0.05,0.36c0.21,1.77,18.59,173.97-159.43,279.2c23.57,24.95,84.79,99.1,70.47,182.83
		l-55.5,282.63h-252l50.95-254.16l0,0c-0.02,0,5.04-39.79-19.14-70.51c-16.22-20.63-42.08-32.89-76.86-36.45l-434.63-0.5
		l-76.98,361.6L11168.34,1686.88z M12156.13,769.2c-0.44,0-0.77,0-0.96,0.01h-622.63c-139.32,12.52-177.34,135.47-178.89,140.69
		l-162.46,758.46l214.26-0.5l76.98-361.65l450.52,0.56c40.98,4.15,71.14,18.81,90.57,43.64c29.02,37.08,22.94,82.92,22.67,84.85
		l-46.6,232.6h214.29l52.52-267.51c15.53-90.8-72.74-173.94-73.63-174.77l-9.36-8.68l11.17-6.17
		c176.83-97.63,161.64-257.7,160.62-266.72C12327.67,773.43,12171.41,769.2,12156.13,769.2z M11525.33,1156.32h-11.43l37.3-173.16
		c21.23-59.34,72.65-63.59,74.82-63.74l401.88-0.03c62.18,1.72,90.6,21.65,91.78,22.51c51.96,49.05,4.82,140.79,2.79,144.68
		l-0.01,0.02c-34.5,65.47-135.65,69.59-139.94,69.72L11525.33,1156.32z M11536.76,1137.86h445.46c0.63-0.03,94.43-3.93,123.91-59.87
		c0.94-1.83,42.43-83.45,1.84-121.89c0,0.01,0,0.01,0,0.01c-0.21,0-25.69-16.75-80.31-18.26h-400.98c-1,0.11-41.05,3.85-57.76,50.38
		L11536.76,1137.86z"/>
</g>
<g>
	<path class="st0" d="M13261.49,1677.07l-871.4,0.55l164.48-768.12c0,0,44.03-136.23,186.08-149.53h716.06l-35.72,166.14
		l-580.66,0.83c0,0-62.3,7.48-73.1,71.44l-29.91,139.56l637.14,0.83l-32.4,160.32l-639.64,1.66l-44.86,215.15l638.81,1.66
		L13261.49,1677.07z"/>
	<path class="st0" d="M12378.67,1686.86l166.88-779.28c0.7-2.33,47.84-143.08,194.24-156.79l728.35-0.04l-39.7,184.59l-588.1,0.85
		c-1.15,0.22-54.53,7.59-64.01,63.74l-27.6,128.81l637.01,0.83l-36.12,178.75l-639.68,1.67l-41.02,196.73l638.92,1.66l-38.93,177.92
		L12378.67,1686.86z M12740.64,769.21c-133.25,12.51-175.56,137.82-177.3,143.15l-161.84,756.03l852.56-0.53l30.85-141.07
		l-638.69-1.66l48.7-233.56l639.59-1.67l28.67-141.9l-637.28-0.83l32.3-150.71c11.74-69.56,80.33-78.58,81.02-78.66l574.29-0.89
		l31.75-147.69H12740.64z"/>
</g>
<g>
	<polygon class="st1" points="745.8,1701.53 341.01,1197.08 745.77,692.05 861,784.4 530.32,1197.02 860.97,1609.11 	"/>
</g>
<g>
	<polygon class="st1" points="13702.39,1719.41 13587.21,1626.98 13917.87,1214.9 13587.19,802.28 13702.42,709.92 
		14107.18,1214.95 	"/>
</g>
<g>
	<path class="st0" d="M6068.76,759.98h-479.59c-260.28-15.51-354.43,249.21-354.43,249.21l-90.82,445.25
		c12.18,209.34,203.8,222.63,203.8,222.63h530.54c210.44-14.4,297.94-227.06,297.94-227.06l94.15-431.96
		C6291.39,781.02,6068.76,759.98,6068.76,759.98z M6031.1,1043.53l-68.67,333.39c-27.69,110.76-147.31,134.02-147.31,134.02h-313.45
		c-139.56-6.65-110.76-145.09-110.76-145.09l66.46-309.02c44.3-136.23,177.22-129.59,177.22-129.59l291.3-0.05
		C6041.07,939.31,6031.1,1043.53,6031.1,1043.53z"/>
	<path class="st0" d="M5347.72,1686.3c-2.63-0.16-200.51-16.37-213.01-231.33l-0.07-1.2l0.24-1.18l90.82-445.26
		c1.31-3.97,100.11-272.37,364.02-256.57l479.47-0.02l0.43,0.05c2.32,0.22,231.51,24.72,209.91,268.07l-94.32,433.11
		c-1.39,3.72-92.64,219.68-306.34,234.3L5347.72,1686.3z M5153.21,1455.1c12.19,197.36,187.68,212.23,195.16,212.77l529.89-0.03
		c201.46-13.8,288.55-219.27,289.41-221.34l93.66-430.42c19.58-221.35-179.65-245.51-193.01-246.87h-479.14
		c-250.77-14.88-344.82,240.49-345.74,243.07L5153.21,1455.1z M5501.67,1520.16c-44.13-2.09-76.83-16.77-97.64-43.63
		c-35.51-45.85-22.71-109.88-22.16-112.58l66.48-309.08C5494.54,912.69,5633.71,918,5635.05,918l290.83-0.06
		c123.83,12.99,114.52,125.33,114.41,126.47l-0.14,0.98l-68.68,333.39C5942.6,1494.29,5822,1519,5816.88,1519.99L5501.67,1520.16z
		 M5631.06,936.39c-21.17,0-126.76,5.95-164.91,123.28l-66.21,308.1c-0.1,0.51-11.56,58.51,18.76,97.54
		c17.35,22.34,45.42,34.59,83.42,36.4l313.01-0.01c-0.63-0.05,112.46-23.45,138.36-127.02l68.48-332.47
		c0.6-8.01,4.77-95.14-97.04-105.87l-290.33,0.11C5634.14,936.44,5632.93,936.39,5631.06,936.39z"/>
</g>
</svg>
