<?xml version="1.0" encoding="utf-8"?>
<!-- Generator: Adobe Illustrator 23.0.1, SVG Export Plug-In . SVG Version: 6.00 Build 0)  -->
<svg version="1.1" id="Camada_1" xmlns="http://www.w3.org/2000/svg" xmlns:xlink="http://www.w3.org/1999/xlink" x="0px" y="0px"
	 viewBox="0 0 3061.42 2551.18" style="enable-background:new 0 0 3061.42 2551.18;" xml:space="preserve">
<style type="text/css">
	.st0{fill:#FFFFFF;}
	.st1{fill:#1BD9B7;}
</style>
<g>
	<path class="st0" d="M500.15,1536.84l553.56,1.29c0,0,90.54-16.81,124.16-93.12c0,0,40.09-121.58,47.85-221.17
		c0,0-3.88-34.92-21.99-54.32c0,0,40.09-31.04,50.44-72.43l34.92-156.5c0,0,14.23-104.76-93.12-116.4H654.06l-28.45,130.63h438.45
		c0,0,42.68,12.93,29.75,51.73l-9.05,46.56c0,0-15.52,45.27-62.08,45.27H620.44l-27.16,130.63l411.29,2.59
		c0,0,50.44,3.88,27.16,69.84l-15.52,67.26c0,0-20.69,45.27-68.55,40.09H528.61L500.15,1536.84z"/>
	<path class="st0" d="M1055.03,1545.2l-563.83-1.19l31.65-142.4h424.81c40.13,4.4,59.23-30.38,61.73-35.32l15.34-66.46
		c7.59-21.65,7.9-37.57,1.14-48.08c-7.45-11.59-21.75-12.97-21.89-12.98l-419.52-2.62l30.14-144.94h408.08
		c40.71,0,54.72-38.78,55.29-40.43l8.79-45.58c3.26-9.96,3-17.7-0.53-24.58c-5.96-11.61-19.69-17.26-23.35-18.6H616.69l31.58-145.01
		h547.71c34.83,3.73,60.84,16.79,78.09,38.85c28.47,36.38,22.42,83.71,22.15,85.71l-35.03,157.1
		c-8.57,34.28-35.53,61.25-47.41,71.79c15.42,21.14,18.93,51.21,19.09,52.6c-7.72,100.66-47.77,222.99-48.18,224.21
		C1149.7,1526.79,1058.88,1544.49,1055.03,1545.2z M509.1,1529.68l544.62,1.27c-0.46-0.04,85.93-17.01,117.58-88.83
		c0.15-0.56,39.66-121.25,47.27-218.81c0,0.01,0,0.01,0,0.01c-0.13,0-4.1-31.77-20.08-48.88l-5.37-5.75l6.22-4.83
		c0.39-0.29,38.28-30.09,47.88-68.49l34.87-156.32l0,0c-0.04,0,5.28-42.96-19.41-74.42c-14.78-18.83-37.48-30.02-67.48-33.27
		l-535.36,0.04l-25.32,116.26l431.62,0.31c0.94,0.29,23.08,7.18,32.8,25.98c5.37,10.38,5.93,22.12,1.67,34.9l-8.81,45.66
		c-0.43,1.47-18.03,51.08-69.14,51.08H626.28l-24.19,116.31l402.51,2.53c1.38,0.08,21.81,1.85,33.21,19.36
		c9.42,14.45,9.65,34.66,0.69,60.06l-15.77,67.85c-0.22,0.5-23.33,50.05-75.85,44.25l-412.52,0.04L509.1,1529.68z"/>
</g>
<g>
	<path class="st0" d="M2405.28,1538.14h-181.07l103.47-504.41c0,0,5.17-76.31-45.27-80.19H2149.2c0,0-76.31,9.05-113.82,126.75
		l-99.59,457.85h-178.48l104.76-490.19c0,0,10.35-90.54-42.68-94.42h-133.22c0,0-67.26,16.81-99.59,97l-112.52,487.6h-178.48
		l102.18-482.43c0,0,55.61-199.18,235.39-231.51h250.91c0,0,69.84-6.47,103.47,94.42c0,0,77.6-85.36,152.62-94.42h265.14
		c0,0,125.46,24.57,108.64,188.83C2497.11,1177.29,2405.28,1538.14,2405.28,1538.14z"/>
	<path class="st0" d="M2410.87,1545.32h-195.46l105.23-513.05l0,0c-0.07,0.01,3.87-68.3-38.78-71.58l-132.66,0.02
		c-2.06,0.32-71.48,10.4-106.97,121.75l-100.65,462.85h-193.16l106.62-498.87l0,0c-0.04,0,5.43-50.94-14.12-74.5
		c-5.73-6.9-12.95-10.59-22.06-11.26l-131.7,0.02c-7.35,2.18-65.26,21.44-93.92,92.5l-113.47,492.1h-193.07l104.01-491.1
		c0.68-2.48,59.05-204.35,241.15-237.1l252.19-0.11c2.35-0.29,70.06-5.33,106.31,88.28c22.18-22.28,85.64-80.59,148.91-88.23
		l266.01-0.05c2.7,0.39,133.07,27.92,115.79,196.75c-16.68,162.91-107.91,522.54-108.83,526.15L2410.87,1545.32z M2233.02,1530.95
		h166.67c11.49-45.71,91.64-367.72,107.09-518.65c15.92-155.47-98.02-180.08-102.88-181.05l-263.75,0.13
		c-70.59,8.57-146.54,91.23-147.3,92.07l-8.26,9.07l-3.87-11.63c-31.45-94.34-95.33-89.61-95.99-89.54l-251.58,0.03
		c-171.86,31.03-227.93,224.32-228.47,226.27l-100.22,473.3h163.9l111.24-482.03c33.66-83.71,101.96-101.63,104.85-102.36l1.74-0.22
		h133.22c13.57,0.98,24.37,6.5,32.61,16.45c23.48,28.34,17.47,83.64,17.2,85.97l-103.02,482.19H1930l98.36-452.19
		c38.64-121.37,116.69-131.97,119.99-132.36l134.07-0.05c46.07,3.52,54.4,59.01,52.44,87.86L2233.02,1530.95z"/>
</g>
<g>
	<polygon class="st1" points="374.72,1567.21 59.6,1174.5 374.7,781.35 464.41,853.24 206.97,1174.46 464.39,1495.26 	"/>
</g>
<g>
	<polygon class="st1" points="862.94,1577.8 835.35,1708.86 1435.47,1708.86 1464.79,1577.8 	"/>
	<path class="st1" d="M1441.23,1716.04H826.5l30.62-145.43h616.64L1441.23,1716.04z M844.21,1701.67h585.51l26.1-116.69H868.77
		L844.21,1701.67z"/>
</g>
<g>
	<polygon class="st1" points="2638.43,1574.11 2548.76,1502.16 2806.18,1181.36 2548.74,860.14 2638.45,788.25 2953.55,1181.4 	"/>
</g>
</svg>
