<?xml version="1.0" encoding="utf-8"?>
<!-- Generator: Adobe Illustrator 23.0.1, SVG Export Plug-In . SVG Version: 6.00 Build 0)  -->
<svg version="1.1" id="Camada_1" xmlns="http://www.w3.org/2000/svg" xmlns:xlink="http://www.w3.org/1999/xlink" x="0px" y="0px"
	 viewBox="0 0 5102.36 8503.94" style="enable-background:new 0 0 5102.36 8503.94;" xml:space="preserve">
<style type="text/css">
	.st0{fill:#1BD9B7;}
</style>
<g>
	<polygon class="st0" points="4586.01,1773.32 4266.01,1773.32 4266.01,5202.75 2727.57,6709.28 929.32,6709.28 929.32,7029.28 
		2858.16,7029.28 4586.01,5337.28 	"/>
</g>
<g>
	<path class="st0" d="M4951.95,1295.06c0,290-235.94,525.94-525.94,525.94s-525.94-235.94-525.94-525.94
		c0-290,235.94-525.93,525.94-525.93S4951.95,1005.06,4951.95,1295.06z M4631.95,1295.06c0-113.55-92.39-205.93-205.94-205.93
		s-205.94,92.38-205.94,205.93c0,113.55,92.39,205.94,205.94,205.94S4631.95,1408.61,4631.95,1295.06z"/>
</g>
<g>
	<path class="st0" d="M1202.28,6869.28c0,290-235.94,525.93-525.94,525.93s-525.92-235.93-525.92-525.93
		c0-290,235.92-525.93,525.92-525.93S1202.28,6579.27,1202.28,6869.28z M882.28,6869.28c0-113.55-92.39-205.93-205.94-205.93
		s-205.92,92.38-205.92,205.93c0,113.55,92.37,205.93,205.92,205.93S882.28,6982.83,882.28,6869.28z"/>
</g>
</svg>
